<?xml version="1.0" encoding="UTF-8" standalone="no"?>
<svg width="150" height="150" viewBox="0 0 150 150" xmlns="http://www.w3.org/2000/svg">
  <style>
    .pixel {
      shape-rendering: crispEdges;
    }
  </style>
  <!-- Closed Fortune Cookie -->
  <g transform="translate(25, 25) scale(1.3)">
    <!-- Cookie Main Body -->
    <path class="pixel" d="M 30,20 L 70,20 L 80,30 L 80,50 L 70,60 L 30,60 L 20,50 L 20,30 Z" fill="#F5A742"/>
    <path class="pixel" d="M 30,20 L 70,20 L 80,30 L 80,50 L 70,60 L 30,60 L 20,50 L 20,30 Z" fill="none" stroke="#C97D1C" stroke-width="2"/>
    
    <!-- Cookie Details -->
    <line class="pixel" x1="30" y1="30" x2="70" y2="30" stroke="#C97D1C" stroke-width="2"/>
    <line class="pixel" x1="30" y1="40" x2="70" y2="40" stroke="#C97D1C" stroke-width="2"/>
    <line class="pixel" x1="30" y1="50" x2="70" y2="50" stroke="#C97D1C" stroke-width="2"/>
    
    <!-- Cookie Crumbs -->
    <rect class="pixel" x="35" y="25" width="3" height="3" fill="#C97D1C"/>
    <rect class="pixel" x="45" y="25" width="3" height="3" fill="#C97D1C"/>
    <rect class="pixel" x="55" y="25" width="3" height="3" fill="#C97D1C"/>
    <rect class="pixel" x="65" y="25" width="3" height="3" fill="#C97D1C"/>
    
    <rect class="pixel" x="30" y="35" width="3" height="3" fill="#C97D1C"/>
    <rect class="pixel" x="40" y="35" width="3" height="3" fill="#C97D1C"/>
    <rect class="pixel" x="50" y="35" width="3" height="3" fill="#C97D1C"/>
    <rect class="pixel" x="60" y="35" width="3" height="3" fill="#C97D1C"/>
    <rect class="pixel" x="70" y="35" width="3" height="3" fill="#C97D1C"/>
    
    <rect class="pixel" x="35" y="45" width="3" height="3" fill="#C97D1C"/>
    <rect class="pixel" x="45" y="45" width="3" height="3" fill="#C97D1C"/>
    <rect class="pixel" x="55" y="45" width="3" height="3" fill="#C97D1C"/>
    <rect class="pixel" x="65" y="45" width="3" height="3" fill="#C97D1C"/>
    
    <rect class="pixel" x="30" y="55" width="3" height="3" fill="#C97D1C"/>
    <rect class="pixel" x="40" y="55" width="3" height="3" fill="#C97D1C"/>
    <rect class="pixel" x="50" y="55" width="3" height="3" fill="#C97D1C"/>
    <rect class="pixel" x="60" y="55" width="3" height="3" fill="#C97D1C"/>
    
    <!-- Fortune slip peek -->
    <rect class="pixel" x="45" y="15" width="10" height="5" fill="#FFFFFF"/>
  </g>
</svg>
